<svg width="360" height="360" viewBox="0 0 360 360" fill="none" xmlns="http://www.w3.org/2000/svg">
<g filter="url(#filter0_i_79_2)">
<path d="M0 10C0 4.47716 4.47715 0 10 0H350C355.523 0 360 4.47715 360 10V350C360 355.523 355.523 360 350 360H10C4.47716 360 0 355.523 0 350V10Z" fill="url(#paint0_linear_79_2)"/>
</g>
<path d="M173.344 80.2502C167.206 81.1103 160.481 83.1825 155.32 85.7238C151.528 87.6786 146.093 91.5492 142.614 94.7943C131.862 104.999 125.646 119.23 125.646 133.578C125.646 139.287 126.467 143.509 129.008 151.016C134.56 167.476 149.065 195.821 165.994 223.228C169.669 229.21 172.484 231.399 177.566 232.337C182.102 233.159 187.732 231.282 190.703 228.037C191.407 227.255 194.183 222.915 196.88 218.419C216.311 186.008 228.392 161.337 232.889 144.838C234.101 140.46 234.14 139.951 234.14 133.227C234.101 126.971 233.983 125.759 233.084 122.084C230.308 111.02 225.147 102.144 217.132 94.5988C209.86 87.7568 200.946 83.1043 191.016 81.0321C186.676 80.0938 177.332 79.7028 173.344 80.2502ZM185.034 109.377C195.238 111.801 202.393 121.419 201.767 131.897C201.024 143.587 191.719 152.384 179.99 152.384C168.261 152.384 158.956 143.587 158.213 131.897C157.549 121.341 164.586 111.88 174.986 109.377C177.84 108.674 182.023 108.674 185.034 109.377Z" fill="white"/>
<path d="M138.353 214.705C127.992 217.403 122.245 220.1 117.983 224.323C114.816 227.45 113.917 229.444 113.917 233.315C113.917 244.849 132.605 252.942 165.017 255.444C172.719 256.03 195.708 255.679 202.276 254.857C231.325 251.182 246.065 243.949 246.065 233.315C246.065 229.444 245.165 227.45 241.999 224.323C238.988 221.312 235.391 219.201 229.761 217.129C225.812 215.682 215.491 213.063 214.357 213.258C213.771 213.336 212.715 214.783 210.486 218.536C207.593 223.423 207.476 223.736 208.258 223.893C208.727 224.01 211.073 224.44 213.419 224.909C222.255 226.59 231.677 230.031 233.749 232.338C234.492 233.159 234.492 233.198 233.554 233.941C227.846 238.437 213.223 242.19 195.239 243.676C188.436 244.262 171.546 244.262 164.743 243.676C146.758 242.19 132.136 238.437 126.428 233.941C125.49 233.198 125.49 233.159 126.154 232.416C127.054 231.438 130.729 229.484 134.013 228.232C136.906 227.138 144.53 225.183 148.322 224.518C153.092 223.736 152.975 224.401 149.495 218.536C146.797 213.962 146.328 213.376 145.351 213.297C144.725 213.219 141.598 213.884 138.353 214.705Z" fill="white"/>
<path d="M96.0494 220.842C90.0676 223.97 84.3594 229.327 82.0136 234.096C79.355 239.492 79.3159 244.887 81.9745 250.282C83.5384 253.488 88.9729 259.118 93.1953 261.855C106.723 270.652 130.572 276.947 159.465 279.332C167.284 279.996 192.541 279.957 200.517 279.332C229.331 276.986 253.219 270.691 266.786 261.855C271.008 259.118 276.443 253.488 278.007 250.282C281.799 242.541 280.157 234.722 273.276 227.841C269.992 224.557 265.144 221.077 262.251 219.982C259.905 219.083 258.028 219.513 256.191 221.351C254.314 223.188 253.923 225.065 254.861 227.489C255.448 229.053 255.956 229.522 259.397 231.751C265.3 235.582 268.35 239.101 268.35 242.111C268.35 246.138 262.876 251.26 254.158 255.404C229.096 267.329 182.18 271.59 142.145 265.53C116.771 261.699 96.7532 253.371 92.4134 244.887C90.3413 240.782 92.8044 236.794 100.585 231.751C104.025 229.522 104.533 229.053 105.12 227.489C106.293 224.439 104.924 221.233 101.914 219.982C99.9982 219.161 98.9817 219.318 96.0494 220.842Z" fill="white"/>
<defs>
<filter id="filter0_i_79_2" x="0" y="0" width="365" height="365" filterUnits="userSpaceOnUse" color-interpolation-filters="sRGB">
<feFlood flood-opacity="0" result="BackgroundImageFix"/>
<feBlend mode="normal" in="SourceGraphic" in2="BackgroundImageFix" result="shape"/>
<feColorMatrix in="SourceAlpha" type="matrix" values="0 0 0 0 0 0 0 0 0 0 0 0 0 0 0 0 0 0 127 0" result="hardAlpha"/>
<feMorphology radius="1" operator="erode" in="SourceAlpha" result="effect1_innerShadow_79_2"/>
<feOffset dx="5" dy="5"/>
<feGaussianBlur stdDeviation="5"/>
<feComposite in2="hardAlpha" operator="arithmetic" k2="-1" k3="1"/>
<feColorMatrix type="matrix" values="0 0 0 0 0 0 0 0 0 0 0 0 0 0 0 0 0 0 0.25 0"/>
<feBlend mode="normal" in2="shape" result="effect1_innerShadow_79_2"/>
</filter>
<linearGradient id="paint0_linear_79_2" x1="180" y1="0" x2="180" y2="360" gradientUnits="userSpaceOnUse">
<stop stop-color="#4E4E4E"/>
<stop offset="1"/>
</linearGradient>
</defs>
</svg>
