<svg width="192" height="192" viewBox="0 0 192 192" fill="none" xmlns="http://www.w3.org/2000/svg">
<path d="M56.0184 129.316C46.0721 131.906 40.5548 134.496 36.4637 138.55C33.4235 141.552 32.5602 143.466 32.5602 147.182C32.5602 158.255 50.5011 166.024 81.616 168.426C89.01 168.989 111.079 168.651 117.385 167.863C145.272 164.335 159.422 157.391 159.422 147.182C159.422 143.466 158.559 141.552 155.519 138.55C152.629 135.66 149.176 133.633 143.771 131.644C139.98 130.255 130.071 127.74 128.983 127.928C128.42 128.003 127.406 129.392 125.267 132.995C122.49 137.686 122.377 137.987 123.128 138.137C123.578 138.249 125.83 138.662 128.082 139.113C136.564 140.727 145.61 144.029 147.599 146.244C148.312 147.032 148.312 147.07 147.412 147.783C141.932 152.099 127.894 155.702 110.629 157.129C104.098 157.692 87.884 157.692 81.3533 157.129C64.088 155.702 50.0507 152.099 44.5708 147.783C43.67 147.07 43.67 147.032 44.3081 146.319C45.1714 145.381 48.6995 143.504 51.8522 142.303C54.6297 141.252 61.9487 139.375 65.5894 138.737C70.1684 137.987 70.0558 138.625 66.7154 132.995C64.1256 128.603 63.6752 128.04 62.7368 127.965C62.1363 127.89 59.1337 128.528 56.0184 129.316Z" fill="white"/>
<path d="M15.4074 135.209C9.66488 138.212 4.18504 143.354 1.93306 147.933C-0.619193 153.112 -0.656726 158.292 1.89552 163.471C3.39685 166.549 8.61395 171.954 12.6675 174.581C25.654 183.026 48.5492 189.069 76.2861 191.358C83.7927 191.996 108.039 191.959 115.696 191.358C143.358 189.106 166.29 183.064 179.314 174.581C183.368 171.954 188.585 166.549 190.086 163.471C193.727 156.04 192.151 148.533 185.545 141.927C182.392 138.775 177.738 135.434 174.961 134.383C172.709 133.52 170.907 133.933 169.143 135.697C167.341 137.461 166.966 139.262 167.867 141.59C168.43 143.091 168.918 143.541 172.221 145.681C177.888 149.359 180.816 152.737 180.816 155.627C180.816 159.493 175.561 164.41 167.191 168.388C143.133 179.836 98.0929 183.927 59.659 178.109C35.3 174.431 16.083 166.436 11.9169 158.292C9.92761 154.351 12.2922 150.522 19.7613 145.681C23.0642 143.541 23.5521 143.091 24.1151 141.59C25.2411 138.662 23.9275 135.584 21.0374 134.383C19.1983 133.595 18.2224 133.745 15.4074 135.209Z" fill="white"/>
<path d="M89.6101 0.240234C83.7174 1.06596 77.2617 3.05522 72.3073 5.49487C68.6666 7.37152 63.4495 11.0873 60.1091 14.2025C49.7875 23.9987 43.8197 37.6607 43.8197 51.4354C43.8197 56.9152 44.6079 60.9688 47.0475 68.1752C52.3772 83.9766 66.302 111.188 82.5539 137.499C86.082 143.241 88.7843 145.343 93.6637 146.244C98.0175 147.032 103.422 145.231 106.275 142.115C106.95 141.365 109.615 137.199 112.205 132.882C130.859 101.767 142.457 78.0839 146.773 62.2449C147.937 58.0412 147.974 57.5533 147.974 51.0976C147.937 45.0923 147.824 43.9288 146.961 40.4007C144.296 29.7788 139.341 21.2588 131.647 14.0149C124.666 7.44659 116.108 2.98015 106.575 0.990891C102.409 0.0901031 93.4384 -0.285233 89.6101 0.240234ZM100.832 28.2024C110.629 30.5294 117.497 39.7626 116.897 49.8215C116.184 61.0439 107.251 69.4888 95.9907 69.4888C84.7308 69.4888 75.7979 61.0439 75.0848 49.8215C74.4467 39.6875 81.2027 30.6045 91.1865 28.2024C93.9264 27.5268 97.9424 27.5268 100.832 28.2024Z" fill="white"/>
</svg>
