<svg width="424" height="520" viewBox="0 0 424 520" fill="none" xmlns="http://www.w3.org/2000/svg">
<g filter="url(#filter0_i_56_22)">
<rect width="424" height="520" rx="50" fill="url(#paint0_linear_56_22)"/>
</g>
<path d="M161.327 303.349C148.84 306.6 141.914 309.851 136.778 314.94C132.961 318.71 131.877 321.113 131.877 325.778C131.877 339.678 154.4 349.432 193.463 352.448C202.746 353.155 230.453 352.731 238.369 351.741C273.379 347.312 291.143 338.595 291.143 325.778C291.143 321.113 290.06 318.71 286.243 314.94C282.615 311.312 278.28 308.767 271.494 306.27C266.735 304.527 254.295 301.37 252.929 301.605C252.222 301.699 250.95 303.443 248.264 307.966C244.777 313.856 244.636 314.233 245.578 314.422C246.144 314.563 248.971 315.082 251.798 315.647C262.447 317.673 273.803 321.82 276.301 324.6C277.196 325.589 277.196 325.637 276.065 326.532C269.185 331.951 251.562 336.474 229.887 338.265C221.688 338.972 201.332 338.972 193.133 338.265C171.458 336.474 153.835 331.951 146.955 326.532C145.825 325.637 145.825 325.589 146.626 324.694C147.709 323.516 152.139 321.16 156.097 319.652C159.584 318.333 168.772 315.977 173.343 315.176C179.091 314.233 178.95 315.034 174.756 307.966C171.505 302.453 170.94 301.747 169.762 301.652C169.008 301.558 165.238 302.359 161.327 303.349Z" fill="white"/>
<path d="M110.343 310.745C103.134 314.514 96.254 320.97 93.4268 326.719C90.2226 333.221 90.1755 339.724 93.3797 346.226C95.2645 350.09 101.814 356.876 106.903 360.174C123.207 370.776 151.95 378.362 186.772 381.237C196.196 382.038 226.636 381.991 236.248 381.237C270.976 378.41 299.766 370.823 316.117 360.174C321.206 356.876 327.756 350.09 329.64 346.226C334.211 336.897 332.232 327.472 323.939 319.179C319.981 315.221 314.138 311.028 310.651 309.708C307.824 308.624 305.562 309.143 303.347 311.357C301.085 313.572 300.614 315.834 301.745 318.755C302.452 320.64 303.065 321.205 307.211 323.891C314.326 328.509 318.002 332.75 318.002 336.378C318.002 341.232 311.405 347.404 300.897 352.399C270.693 366.771 214.149 371.907 165.898 364.603C135.317 359.986 111.191 349.949 105.961 339.724C103.463 334.776 106.432 329.97 115.809 323.891C119.955 321.205 120.568 320.64 121.275 318.755C122.688 315.08 121.039 311.216 117.411 309.708C115.102 308.719 113.877 308.907 110.343 310.745Z" fill="white"/>
<path d="M203.499 141.302C196.101 142.338 187.996 144.836 181.776 147.898C177.206 150.254 170.656 154.919 166.462 158.83C153.504 171.129 146.012 188.28 146.012 205.574C146.012 212.453 147.002 217.542 150.064 226.589C156.755 246.427 174.237 280.589 194.64 313.62C199.069 320.83 202.462 323.468 208.588 324.599C214.054 325.589 220.839 323.327 224.42 319.416C225.268 318.474 228.614 313.243 231.865 307.825C255.284 268.762 269.844 239.029 275.263 219.144C276.723 213.867 276.771 213.254 276.771 205.149C276.723 197.61 276.582 196.15 275.498 191.72C272.153 178.385 265.933 167.689 256.273 158.595C247.509 150.349 236.766 144.741 224.797 142.244C219.567 141.113 208.305 140.642 203.499 141.302ZM217.588 176.406C229.886 179.328 238.509 190.919 237.755 203.547C236.86 217.636 225.645 228.238 211.509 228.238C197.373 228.238 186.158 217.636 185.263 203.547C184.462 190.825 192.944 179.422 205.478 176.406C208.917 175.558 213.959 175.558 217.588 176.406Z" fill="white"/>
<defs>
<filter id="filter0_i_56_22" x="0" y="0" width="429" height="525" filterUnits="userSpaceOnUse" color-interpolation-filters="sRGB">
<feFlood flood-opacity="0" result="BackgroundImageFix"/>
<feBlend mode="normal" in="SourceGraphic" in2="BackgroundImageFix" result="shape"/>
<feColorMatrix in="SourceAlpha" type="matrix" values="0 0 0 0 0 0 0 0 0 0 0 0 0 0 0 0 0 0 127 0" result="hardAlpha"/>
<feMorphology radius="1" operator="erode" in="SourceAlpha" result="effect1_innerShadow_56_22"/>
<feOffset dx="5" dy="5"/>
<feGaussianBlur stdDeviation="5"/>
<feComposite in2="hardAlpha" operator="arithmetic" k2="-1" k3="1"/>
<feColorMatrix type="matrix" values="0 0 0 0 0 0 0 0 0 0 0 0 0 0 0 0 0 0 0.25 0"/>
<feBlend mode="normal" in2="shape" result="effect1_innerShadow_56_22"/>
</filter>
<linearGradient id="paint0_linear_56_22" x1="212" y1="0" x2="212" y2="520" gradientUnits="userSpaceOnUse">
<stop stop-color="#4E4E4E"/>
<stop offset="1"/>
</linearGradient>
</defs>
</svg>
